General

Complete name                    : Devil.2010{PSP.IPOD.ZUNE}BrRip.aaaevilacharya.m4v
Format                           : MPEG-4
Format profile                   : Base Media / Version 2
Codec ID                         : mp42
File size                        : 301 MiB
Duration                         : 1h 19mn
Overall bit rate                 : 530 Kbps
Encoded date                     : UTC 2010-12-14 15:05:46
Tagged date                      : UTC 2010-12-14 16:20:49


Video
ID                               : 1
Format                           : AVC
Format/Info                      : Advanced Video Codec
Format profile                   : Baseline@L3.0
Format settings, CABAC           : No
Format settings, ReFrames        : 1 frame
Codec ID                         : avc1
Codec ID/Info                    : Advanced Video Coding
Duration                         : 1h 19mn
Bit rate mode                    : Variable
Bit rate                         : 413 Kbps
Width                            : 480 pixels
Height                           : 208 pixels
Display aspect ratio             : 2.35:1
Frame rate mode                  : Variable
Frame rate                       : 23.905 fps
Original frame rate              : 23.976 fps
Minimum frame rate               : 11.987 fps
Maximum frame rate               : 23.981 fps
Color space                      : YUV
Chroma subsampling               : 4:2:0
Bit depth                        : 8 bits
Scan type                        : Progressive
Bits/(Pixel*Frame)               : 0.173
Stream size                      : 237 MiB (79%)
Writing library                  : x264 core 79

Audio
ID                               : 2
Format                           : AAC
Format/Info                      : Advanced Audio Codec
Format version                   : Version 4
Format profile                   : LC
Format settings, SBR             : No
Codec ID                         : 40
Duration                         : 1h 19mn
Bit rate mode                    : Variable
Bit rate                         : 110 Kbps
Maximum bit rate                 : 170 Kbps
Channel(s)                       : 2 channels
Channel positions                : Front: L R
Sampling rate                    : 44.1 KHz
Stream size                      : 62.7 MiB (21%)
Encoded date                     : UTC 2010-12-14 15:05:46
Tagged date                      : UTC 2010-12-14 16:20:49

Text
ID                               : 3
Format                           : Apple text
Codec ID                         : text
Duration                         : 1h 19mn
Bit rate                         : 0
Stream size                      : 14.0 Bytes (0%)
Encoded date                     : UTC 2010-12-14 15:05:46
Tagged date                      : UTC 2010-12-14 16:20:49

SCREENSHOTS
 
http://img148.imageshack.us/img148/4012/devil2010pspipodzunebrr.jpg 
http://img696.imageshack.us/img696/4012/devil2010pspipodzunebrr.jpg 
http://img148.imageshack.us/img148/6646/devil2010pspipodzunebrrf.jpg 
http://img207.imageshack.us/img207/4012/devil2010pspipodzunebrr.jpg 
http://img522.imageshack.us/img522/4012/devil2010pspipodzunebrr.jpg 
http://img130.imageshack.us/img130/4012/devil2010pspipodzunebrr.jpg 
http://img190.imageshack.us/img190/4012/devil2010pspipodzunebrr.jpg
